<?xml version="1.0" standalone="no"?>
<!DOCTYPE svg PUBLIC "-//W3C//DTD SVG 20010904//EN"
 "http://www.w3.org/TR/2001/REC-SVG-20010904/DTD/svg10.dtd">
<svg version="1.0" xmlns="http://www.w3.org/2000/svg"
 width="588.000000pt" height="588.000000pt" viewBox="0 0 588.000000 588.000000"
 preserveAspectRatio="xMidYMid meet">
<metadata>
Created by potrace 1.14, written by Peter Selinger 2001-2017
</metadata>
<g transform="translate(0.000000,588.000000) scale(0.100000,-0.100000)"
fill="#000000" stroke="none">
<path d="M2744 5121 c-3 -3 -21 -6 -42 -7 -20 -1 -55 -5 -77 -9 -22 -3 -51 -8
-65 -10 -14 -3 -36 -7 -50 -10 -14 -3 -38 -8 -54 -10 -16 -3 -37 -10 -47 -16
-11 -5 -19 -8 -19 -5 0 5 -99 -22 -115 -32 -5 -4 -19 -8 -29 -9 -11 -2 -24 -7
-30 -12 -6 -5 -26 -12 -43 -16 -18 -3 -33 -11 -33 -16 0 -6 -4 -8 -9 -4 -5 3
-12 1 -16 -5 -4 -6 -11 -8 -16 -5 -5 4 -9 1 -9 -4 0 -6 -6 -11 -14 -11 -20 0
-177 -85 -187 -102 -3 -5 -10 -10 -15 -10 -19 -1 -50 -17 -70 -36 -11 -11 -31
-23 -43 -27 -12 -4 -20 -10 -16 -13 3 -3 -8 -13 -24 -22 -16 -8 -52 -36 -79
-61 -28 -26 -52 -46 -54 -44 -2 1 -19 -14 -38 -33 -19 -19 -29 -32 -21 -27 10
5 12 4 7 -3 -4 -7 -12 -12 -18 -12 -6 0 -31 -20 -55 -45 -23 -25 -41 -45 -39
-45 2 0 -18 -24 -45 -52 -27 -29 -49 -58 -49 -64 0 -7 -7 -15 -16 -18 -9 -4
-14 -9 -11 -12 3 -3 -2 -14 -11 -24 -32 -35 -42 -49 -42 -58 0 -5 -7 -15 -15
-22 -8 -7 -12 -16 -9 -21 3 -5 1 -9 -5 -9 -14 0 -46 -61 -42 -80 2 -8 0 -12
-5 -8 -7 8 -60 -90 -56 -104 1 -5 -3 -8 -10 -8 -6 0 -9 -3 -5 -6 3 -3 -5 -27
-18 -52 -13 -26 -21 -50 -19 -54 3 -4 0 -8 -7 -8 -7 0 -9 -3 -6 -7 4 -3 2 -12
-4 -20 -6 -7 -8 -13 -4 -13 4 0 2 -7 -5 -15 -7 -8 -9 -15 -5 -15 4 0 2 -7 -5
-15 -6 -8 -9 -18 -6 -24 3 -5 1 -11 -5 -13 -6 -2 -13 -17 -15 -33 -3 -31 -11
-70 -14 -70 -2 0 -7 -21 -14 -57 -4 -16 -9 -40 -12 -55 -17 -85 -27 -207 -28
-345 -1 -78 -5 -128 -11 -129 -5 0 -36 0 -68 -1 -31 0 -97 -9 -145 -19 -48
-11 -100 -22 -117 -24 -16 -3 -43 -8 -60 -12 -108 -23 -233 -35 -406 -37
l-127 -1 31 -40 c17 -22 36 -44 42 -50 7 -5 13 -14 14 -20 1 -5 20 -47 42 -92
21 -46 39 -87 39 -93 0 -5 5 -10 12 -10 6 0 9 -3 5 -6 -3 -4 0 -18 7 -33 8
-14 30 -73 50 -130 20 -56 39 -108 43 -114 4 -7 8 -16 8 -22 0 -5 9 -38 19
-73 l19 -63 109 2 c60 0 111 -1 113 -3 4 -4 17 -65 18 -85 0 -7 3 -13 6 -13 3
0 7 -12 8 -27 1 -16 4 -39 7 -53 3 -14 13 -62 22 -107 15 -79 17 -83 48 -91
53 -15 192 -6 306 20 25 5 53 11 63 13 29 6 269 44 297 48 14 1 30 6 36 10 7
4 29 -7 49 -23 21 -17 35 -30 32 -30 -3 0 12 -19 34 -43 22 -23 44 -42 49 -42
4 0 12 -4 17 -9 5 -5 2 -6 -7 -2 -8 4 -1 -4 15 -19 17 -15 45 -40 63 -56 18
-16 35 -29 38 -29 3 0 16 -10 29 -23 41 -38 55 -48 55 -40 0 4 4 3 8 -3 11
-16 142 -105 142 -97 0 5 4 4 8 -2 4 -5 16 -15 27 -21 11 -6 41 -23 68 -37 26
-15 47 -23 47 -19 0 4 4 1 9 -6 4 -7 18 -14 29 -15 12 -1 22 -4 22 -8 0 -8 40
-22 58 -20 6 1 12 -2 12 -7 0 -8 133 -57 180 -67 8 -2 28 -8 43 -14 15 -6 31
-10 35 -10 4 1 9 0 12 -1 15 -6 109 -23 190 -36 168 -25 401 -24 575 2 17 3
37 5 45 5 8 0 22 3 30 6 8 4 30 7 48 9 19 2 39 8 46 13 7 6 15 9 17 6 3 -2 23
1 45 7 21 6 42 11 47 10 4 -1 7 2 7 6 0 5 6 9 13 10 12 1 47 9 57 12 3 1 8 2
13 1 4 0 7 3 7 7 0 5 7 9 15 10 8 1 22 3 30 4 8 1 15 5 15 10 0 5 5 6 10 3 6
-3 10 -1 10 6 0 7 3 10 6 6 4 -3 21 1 38 10 17 9 37 18 45 19 7 2 18 7 24 13
6 6 19 11 29 11 10 0 18 5 18 10 0 6 7 10 15 10 8 0 15 4 15 10 0 5 3 9 8 8
13 -4 52 13 52 23 0 5 7 9 15 9 8 0 15 5 15 11 0 5 5 7 10 4 6 -3 10 -1 10 4
0 6 7 11 15 11 9 0 18 7 21 15 4 8 10 13 14 10 4 -2 19 6 33 19 14 13 28 21
31 19 3 -3 8 2 12 11 3 9 13 16 20 16 8 0 17 7 20 15 4 8 13 15 20 15 8 0 17
7 20 15 3 8 14 17 24 20 11 3 22 15 25 26 4 10 10 17 13 15 4 -2 16 2 27 10
10 8 15 14 11 14 -4 0 11 16 34 35 23 19 38 35 33 35 -4 1 3 7 17 15 14 8 22
14 18 15 -3 0 11 18 33 41 41 43 49 44 139 24 14 -3 41 -7 60 -10 19 -2 35 -4
35 -5 0 -1 44 -8 85 -14 14 -2 41 -6 60 -9 19 -4 53 -9 75 -12 22 -2 54 -7 70
-10 17 -3 46 -7 65 -9 19 -3 35 -5 35 -6 0 -1 14 -4 30 -6 17 -3 54 -9 84 -14
58 -11 75 -6 67 17 -4 9 -2 11 6 7 7 -5 9 0 6 14 -4 13 -1 22 5 22 6 0 7 3 4
7 -4 3 -3 11 2 17 4 6 32 83 61 171 29 88 54 162 56 164 2 2 49 4 106 4 l103
1 22 75 c12 42 19 79 17 83 -3 5 0 8 5 8 6 0 11 9 11 19 0 11 4 22 9 25 5 3
12 18 16 33 3 15 27 70 51 122 25 53 46 101 47 106 1 6 5 12 8 15 4 3 16 25
28 50 12 25 40 79 61 120 22 41 38 75 37 76 -1 1 -22 -2 -47 -6 -115 -23 -294
-29 -385 -15 -62 10 -80 13 -80 15 0 2 -15 5 -55 13 -14 3 -50 12 -79 21 -30
9 -57 14 -59 11 -3 -3 -11 0 -19 7 -17 14 -189 21 -231 9 -27 -8 -29 -7 -26
18 10 69 3 295 -11 381 -4 25 -8 54 -10 65 -4 31 -21 115 -25 125 -1 3 -2 8
-1 13 1 4 -5 23 -13 42 -8 19 -13 35 -11 35 3 0 0 12 -6 28 -6 15 -12 34 -14
42 -2 8 -13 40 -25 70 -11 30 -22 60 -23 65 -1 6 -6 13 -12 17 -5 4 -10 11
-10 15 -1 20 -50 123 -59 123 -5 0 -6 3 -3 7 4 3 -1 12 -11 20 -9 8 -11 11 -4
8 11 -6 11 -3 0 14 -7 12 -16 21 -21 21 -4 0 -5 5 -2 10 3 6 -1 13 -9 16 -9 3
-14 9 -11 14 4 7 -53 92 -67 98 -5 2 -6 8 -2 13 3 5 -2 12 -10 15 -9 3 -16 12
-16 18 0 7 -11 23 -25 36 -14 13 -25 29 -25 37 0 7 -7 13 -15 13 -8 0 -15 7
-15 16 0 8 -4 12 -10 9 -5 -3 -10 0 -10 7 0 7 -14 26 -30 42 -17 16 -30 33
-30 37 0 4 -9 11 -20 14 -11 3 -20 14 -20 22 0 9 -2 14 -5 11 -3 -3 -23 12
-44 33 -21 21 -41 36 -44 32 -4 -3 -7 1 -7 10 0 9 -4 17 -10 17 -5 0 -20 11
-33 24 -14 14 -28 22 -31 19 -3 -4 -6 0 -6 7 0 7 -2 11 -5 8 -3 -3 -20 9 -38
26 -19 17 -47 38 -63 46 -16 8 -38 23 -48 32 -10 10 -23 15 -28 12 -4 -3 -8
-1 -8 3 0 9 -60 44 -73 43 -4 0 -15 6 -23 15 -9 8 -20 13 -25 10 -5 -4 -9 -2
-9 2 0 9 -79 48 -90 46 -3 -1 -14 6 -24 15 -15 13 -17 13 -11 2 7 -12 5 -12
-11 1 -32 26 -48 34 -39 18 5 -8 -1 -6 -13 4 -11 11 -26 16 -31 12 -6 -3 -11
-1 -11 5 0 7 -7 10 -15 6 -8 -3 -15 -1 -15 5 0 6 -7 9 -15 5 -8 -3 -15 -1 -15
4 0 6 -3 9 -7 9 -5 -1 -10 0 -13 1 -8 3 -44 11 -60 14 -9 1 -21 5 -28 10 -6 4
-16 5 -21 1 -5 -3 -13 0 -16 6 -4 5 -13 8 -20 5 -7 -2 -16 -2 -19 2 -7 6 -21
10 -76 18 -19 2 -46 7 -60 10 -69 14 -445 26 -456 15z"/>
</g>
</svg>
